<?xml version="1.0" encoding="utf-8"?>
<!-- Generator: Adobe Illustrator 20.0.0, SVG Export Plug-In . SVG Version: 6.00 Build 0)  -->
<svg version="1.1" id="Ebene_1" xmlns="http://www.w3.org/2000/svg" xmlns:xlink="http://www.w3.org/1999/xlink" x="0px" y="0px"
	 viewBox="0 0 250 480" style="enable-background:new 0 0 250 480;" xml:space="preserve">
<style type="text/css">
	
		.st0{fill-rule:evenodd;clip-rule:evenodd;fill:none;stroke:#7E8890;stroke-width:2;stroke-linecap:round;stroke-linejoin:round;stroke-miterlimit:22.9256;}
	.st1{fill-rule:evenodd;clip-rule:evenodd;fill:#E1E6EA;}
	.st2{fill:#7E8890;}
</style>
<g id="Peito_Grande">
	<path class="st0" d="M125.4,0c-9,45.2-59.8,74.3-67.4,89.7"/>
	<g>
		<path class="st1" d="M76.7,146.5c-0.2,0-0.5,0-0.6,0c-10.8-0.8-18.2-3.7-22.7-8.9c-4.2-4.9-5.9-11.9-5.2-21.3
			c1.9-25.3,21-38.8,24.7-41.2c16.7,16.1,41.3,28.1,45.3,30l1.1,35.6C113.8,141.6,83.7,146.5,76.7,146.5
			C76.7,146.5,76.7,146.5,76.7,146.5z"/>
		<g>
			<path class="st2" d="M72.8,76.3c16.3,15.5,39.1,26.8,44.4,29.4l1.1,34.1c-7.2,1.2-35,5.6-41.6,5.6c-0.2,0-0.4,0-0.6,0
				c-10.5-0.8-17.7-3.6-22-8.5c-4-4.7-5.7-11.4-5-20.6C51,92.7,68,79.6,72.8,76.3 M73,73.8c0,0-23.7,13.6-25.8,42.4
				c-1.7,22,9.8,29.9,28.8,31.3c0.2,0,0.4,0,0.7,0c7.8,0,43.7-5.9,43.7-5.9l-1.2-37.1C119.2,104.4,91.2,91.6,73,73.8L73,73.8z"/>
		</g>
	</g>
</g>
</svg>
