<?xml version="1.0" encoding="utf-8"?>
<!-- Generator: Adobe Illustrator 20.0.0, SVG Export Plug-In . SVG Version: 6.00 Build 0)  -->
<svg version="1.1" id="Ebene_1" xmlns="http://www.w3.org/2000/svg" xmlns:xlink="http://www.w3.org/1999/xlink" x="0px" y="0px"
	 viewBox="0 0 250 480" style="enable-background:new 0 0 250 480;" xml:space="preserve">
<style type="text/css">
	
		.st0{fill-rule:evenodd;clip-rule:evenodd;fill:none;stroke:#7E8890;stroke-width:2;stroke-linecap:round;stroke-linejoin:round;stroke-miterlimit:22.9256;}
	.st1{fill-rule:evenodd;clip-rule:evenodd;fill:#E1E6EA;}
	.st2{fill:#7E8890;}
</style>
<g id="Peito_Pequeno">
	<path class="st0" d="M124.4,4.1c-9,45.2-38.7,73-55.3,92.4"/>
	<g>
		<path class="st1" d="M85.2,142.6c-1.1,0-1.6-0.1-1.9-0.1c-11.9-1.9-22.6-6.1-21.3-23.4c1.6-20.8,15.4-32,18.6-34.3
			c13.8,13.1,33.7,19.1,37.7,20.2l1,34.4C114.6,140.1,92.8,142.6,85.2,142.6C85.2,142.6,85.2,142.6,85.2,142.6z"/>
		<g>
			<path class="st2" d="M80.5,86.2c13.4,12.3,31.5,18.2,36.8,19.7l1,32.7c-6.1,0.7-25.9,3-33.1,3c-1.1,0-1.6-0.1-1.7-0.1
				c-11.4-1.9-21.7-5.8-20.5-22.3C64.4,100.1,76.5,89.2,80.5,86.2 M80.6,83.6c0,0-17.8,11.4-19.7,35.5
				c-1.4,18.4,10.9,22.6,22.2,24.4c0.5,0.1,1.2,0.1,2.1,0.1c8.7,0,35.1-3.2,35.1-3.2l-1.1-36.1C119.3,104.3,95.9,98.5,80.6,83.6
				L80.6,83.6z"/>
		</g>
	</g>
</g>
</svg>
