<?xml version="1.0" encoding="utf-8"?>
<!-- Generator: Adobe Illustrator 20.0.0, SVG Export Plug-In . SVG Version: 6.00 Build 0)  -->
<svg version="1.1" id="Ebene_1" xmlns="http://www.w3.org/2000/svg" xmlns:xlink="http://www.w3.org/1999/xlink" x="0px" y="0px"
	 viewBox="0 0 250 480" style="enable-background:new 0 0 250 480;" xml:space="preserve">
<style type="text/css">
	
		.st0{fill-rule:evenodd;clip-rule:evenodd;fill:none;stroke:#7E8890;stroke-width:2;stroke-linecap:round;stroke-linejoin:round;stroke-miterlimit:22.9256;}
	.st1{fill-rule:evenodd;clip-rule:evenodd;fill:#E1E6EA;}
	.st2{fill:#7E8890;}
</style>
<g id="Peito_Médio">
	<path class="st0" d="M124.4,4.1c-9,45.3-45,70.7-60.6,87.9"/>
	<g>
		<path class="st1" d="M80.5,144.7c-0.2,0-0.4,0-0.6,0c-9.8-0.7-16.6-3.4-20.7-8.1c-3.8-4.5-5.4-10.8-4.7-19.5
			c1.7-23,18.9-35.3,22.5-37.6c15.2,14.6,37.5,25.6,41.3,27.4l1,32.4C114.1,140.3,86.9,144.7,80.5,144.7
			C80.5,144.7,80.5,144.7,80.5,144.7z"/>
		<g>
			<path class="st2" d="M76.9,80.9c14.8,14,35.4,24.4,40.4,26.8l1,30.9c-6.8,1.1-31.8,5.1-37.8,5.1c-0.2,0-0.4,0-0.5,0
				c-9.6-0.7-16.1-3.2-20-7.7c-3.7-4.3-5.1-10.4-4.5-18.7C57.1,95.9,72.4,84,76.9,80.9 M77.1,78.4c0,0-21.6,12.4-23.6,38.8
				c-1.5,20.1,8.9,27.3,26.3,28.6c0.2,0,0.4,0,0.7,0c7.2,0,39.9-5.4,39.9-5.4l-1.1-33.9C119.3,106.4,93.7,94.6,77.1,78.4L77.1,78.4z
				"/>
		</g>
	</g>
</g>
</svg>
