<?xml version="1.0" encoding="utf-8"?>
<!-- Generator: Adobe Illustrator 20.0.0, SVG Export Plug-In . SVG Version: 6.00 Build 0)  -->
<svg version="1.1" id="Ebene_1" xmlns="http://www.w3.org/2000/svg" xmlns:xlink="http://www.w3.org/1999/xlink" x="0px" y="0px"
	 viewBox="0 0 250 480" style="enable-background:new 0 0 250 480;" xml:space="preserve">
<style type="text/css">
	
		.st0{fill-rule:evenodd;clip-rule:evenodd;fill:none;stroke:#7E8890;stroke-width:2;stroke-linecap:round;stroke-linejoin:round;stroke-miterlimit:22.9256;}
	.st1{fill-rule:evenodd;clip-rule:evenodd;fill:#E1E6EA;}
	.st2{fill:#7E8890;}
</style>
<g id="Barriga_Média_1_">
	<path class="st0" d="M76.3,141.6c0,0-4.3,84.4-6.7,110.6c-3.5,37.4,2.1,50.8,3.3,56.9"/>
	<g>
		<path class="st1" d="M74,344.1c-0.1-0.5-0.2-1-0.3-1.6c-0.7-3.7-2-10.5-1.2-26.4c0.3-6,0.5-8.7,0.5-9.7c3.1-1.2,18.5-7.1,36.1-8.8
			c-0.2,0.8-0.5,1.9-0.8,2.9l-6,25.5c-15.1,1-23.7,12.1-27.4,16.9C74.7,343.3,74.3,343.7,74,344.1z"/>
		<g>
			<path class="st2" d="M107.9,298.6c-0.1,0.5-0.3,1-0.4,1.5c0,0,0,0.1,0,0.1l-5.8,24.7c-14.5,1.3-23.1,11.7-27,16.7
				c-0.7-3.7-1.9-10.6-1.1-25.6c0.3-5.1,0.4-7.7,0.5-9.1C78,305.5,91.9,300.5,107.9,298.6 M110.2,296.4
				C110.2,296.4,110.2,296.4,110.2,296.4c-20.6,1.9-38.1,9.3-38.1,9.3s-0.1,1.6-0.6,10.3c-1.1,20.7,1.4,26.1,1.6,29.2
				c0,0.5,0.1,0.7,0.3,0.7c1.7,0,10.2-18.3,29.7-19l6.2-26.2C109.4,300.7,110.7,296.4,110.2,296.4L110.2,296.4z"/>
		</g>
	</g>
</g>
</svg>
