<?xml version="1.0" encoding="utf-8"?>
<!-- Generator: Adobe Illustrator 20.0.0, SVG Export Plug-In . SVG Version: 6.00 Build 0)  -->
<svg version="1.1" id="Ebene_1" xmlns="http://www.w3.org/2000/svg" xmlns:xlink="http://www.w3.org/1999/xlink" x="0px" y="0px"
	 viewBox="0 0 250 480" style="enable-background:new 0 0 250 480;" xml:space="preserve">
<style type="text/css">
	.st0{fill-rule:evenodd;clip-rule:evenodd;fill:#E1E6EA;}
	.st1{fill:#7E8890;}
	
		.st2{fill-rule:evenodd;clip-rule:evenodd;fill:none;stroke:#7E8890;stroke-width:2;stroke-linecap:round;stroke-linejoin:round;stroke-miterlimit:22.9256;}
</style>
<g id="Barriga_Pequena">
	<g>
		<path class="st0" d="M74,343.6c-0.3-3.5-0.8-9.9,0.1-27.5c0.4-6.5,0.9-9,1.1-9.7c2.4-1.1,16.1-7.1,33.9-8.9
			c-0.2,0.8-0.5,1.9-0.8,2.9l-6,25.5c-15.1,1-23.7,12.1-27.4,16.9c-0.3,0.4-0.6,0.8-0.9,1.2C74.1,343.9,74.1,343.8,74,343.6z"/>
		<g>
			<path class="st1" d="M107.9,298.6c-0.1,0.5-0.3,1-0.4,1.5c0,0,0,0.1,0,0.1l-5.8,24.7c-14.2,1.2-22.7,11.2-26.8,16.4
				c-0.3-3.9-0.5-10.8,0.3-25.2c0.3-5.5,0.7-8,1-9.1C79.3,305.7,91.8,300.5,107.9,298.6 M76.3,306.5L76.3,306.5L76.3,306.5
				 M110.2,296.4C110.2,296.4,110.2,296.4,110.2,296.4c-20.6,1.9-35.7,9.3-35.7,9.3s-0.9,1.7-1.3,10.4c-1.1,20.7-0.2,26.1,0,29.2
				c0,0.5,0.1,0.7,0.3,0.7c1.7,0,10.2-18.3,29.7-19l6.2-26.2C109.4,300.7,110.7,296.4,110.2,296.4L110.2,296.4z"/>
		</g>
	</g>
	<path class="st2" d="M77,141.6c0,0,6,79.6,3.6,105.8c-3.5,37.4-6.4,51.8-5.2,57.9"/>
</g>
</svg>
