<?xml version="1.0" encoding="utf-8"?>
<!-- Generator: Adobe Illustrator 20.0.0, SVG Export Plug-In . SVG Version: 6.00 Build 0)  -->
<svg version="1.1" id="Ebene_1" xmlns="http://www.w3.org/2000/svg" xmlns:xlink="http://www.w3.org/1999/xlink" x="0px" y="0px"
	 viewBox="0 0 250 480" style="enable-background:new 0 0 250 480;" xml:space="preserve">
<style type="text/css">
	.st0{fill-rule:evenodd;clip-rule:evenodd;fill:#E1E6EA;}
	.st1{fill:#7E8890;}
	
		.st2{fill-rule:evenodd;clip-rule:evenodd;fill:none;stroke:#7E8890;stroke-width:2;stroke-linecap:round;stroke-linejoin:round;stroke-miterlimit:22.9256;}
</style>
<g id="Barriga_Grande">
	<g>
		<path class="st0" d="M74,344.1c-0.9-6.1-6.5-32.6-7.7-38.1c4.5-1.3,25.1-6.8,42.9-8.5c-0.2,0.8-0.5,1.9-0.8,2.9l-6,25.5
			c-15.1,1-23.7,12.1-27.4,16.9C74.7,343.3,74.3,343.7,74,344.1z"/>
		<g>
			<path class="st1" d="M107.9,298.6c-0.1,0.5-0.3,1-0.4,1.5c0,0,0,0.1,0,0.1l-5.8,24.7c-14.5,1.3-23.1,11.7-27,16.7
				c-1.5-8.3-5.7-28.3-7.1-34.9C73.2,305.2,91.5,300.4,107.9,298.6 M110.2,296.4C110.2,296.4,110.2,296.4,110.2,296.4
				c-20.6,1.9-45.1,8.9-45.1,8.9s7.8,36.8,8,39.9c0,0.5,0.1,0.7,0.3,0.7c1.7,0,10.2-18.3,29.7-19l6.2-26.2
				C109.4,300.7,110.7,296.4,110.2,296.4L110.2,296.4z"/>
		</g>
	</g>
	<path class="st2" d="M76.5,142.2c0,0-14.1,82-16.6,108.3c-3.5,37.4,6,52.6,7.2,58.7"/>
</g>
</svg>
