<?xml version="1.0" encoding="utf-8"?>
<!-- Generator: Adobe Illustrator 20.0.0, SVG Export Plug-In . SVG Version: 6.00 Build 0)  -->
<svg version="1.1" id="Ebene_1" xmlns="http://www.w3.org/2000/svg" xmlns:xlink="http://www.w3.org/1999/xlink" x="0px" y="0px"
	 viewBox="0 0 250 480" style="enable-background:new 0 0 250 480;" xml:space="preserve">
<style type="text/css">
	.st0{fill:none;stroke:#7E8890;stroke-width:2;stroke-linecap:round;stroke-linejoin:round;stroke-miterlimit:22.9256;}
	.st1{fill:#E1E6EA;stroke:#7E8890;stroke-width:2;stroke-linecap:round;stroke-linejoin:round;stroke-miterlimit:22.9256;}
	.st2{fill:#FFFFFF;stroke:#7E8890;stroke-width:2;stroke-linecap:round;stroke-miterlimit:22.9256;}
	.st3{fill:none;stroke:#7E8890;stroke-width:2;stroke-linecap:round;stroke-miterlimit:22.9256;}
</style>
<g id="Quadril_Grande">
	<g>
		<path class="st0" d="M173.7,0.2c0,0,12.3,36.9,15.4,61.6c3.1,24.6-2.2,68.1-4.6,84.6c-2.1,14.5-16.9,51.3-16.4,71.8
			c0.4,17.6,7.4,44,21,74.5c2,4.4,6.1,10,8.5,15.2c14.1,29.8,11.7,40.6,12,49.4c1.1,27.4-12.1,38.9-32.9,55.4c0,0-2.1,0.1-5,11.3
			c-3.1,19-4.1,54.4-4.1,54.4"/>
		<polygon class="st1" points="165.3,134.4 184.9,142.4 181,160.4 165.8,157.8 		"/>
		<path class="st1" d="M190,294.8c0,0-17.3-2.9-40.3-1.4c-1.3,0.1-3.1,5.1-3.1,5.1l-14.1,29.7c0,0,53.8,7.8,72,56
			c0,0,7.4-9.1,6.2-34.7C209.1,319.1,189.3,294.8,190,294.8z"/>
	</g>
	<g id="Braço_2_">
		<path class="st2" d="M124.9,232.9c-4.6,21.6-9.3,41.8-14,61.8c-6.2,26.5-12.7,51.8-18.8,80.2c-0.2,1-2,5.4-2.7,6.4
			c-10.4,17.7-13.9,27.8-19.1,42c-0.3,0.8-0.3,4-0.1,4.8c3.1,9.3,7,17.4,10.5,25.5c6.7,7.2,13.4,12.8,20.1,20
			c3.7-5.4-1.6-15.4-6.5-19.8c-0.5-7.2-0.4-14.9-2.4-22.5c5.7-8.7,11.6-14.4,15.3-19.9c4-9.7,2.6-22.5,4.3-34
			c1.3-4.9,2.7-3.8,3.8-7.1c1.1-3.3,0.9-5.2,1.3-6.5c8.8-25.5,22.4-47.5,31.2-71.7c6.8-18.7,9-37.4,13-50.6
			c0.8-2.6,2.1-5.7,2.2-13.5c0.1-13.5,1.7-39.9,1.9-65.9c0.2-18.5-0.2-36.8,0.9-50.9c0.1-1.6,3-22.4,3.5-41.6
			c0.1-3.9,1.5-26.2-9.3-35.5c-12.2-10.6-35.1-9.5-41,17.9C114.9,71.5,123,197.3,124.9,232.9z"/>
		<polyline class="st2" points="84.1,432.6 87,453.6 95.5,468.2 		"/>
		<line class="st3" x1="76.5" y1="429.9" x2="80.1" y2="452.1"/>
	</g>
	<path class="st0" d="M73.9,342.6c0,0-1.9,28,1.9,65.2"/>
</g>
</svg>
