<?xml version="1.0" encoding="utf-8"?>
<!-- Generator: Adobe Illustrator 15.0.0, SVG Export Plug-In . SVG Version: 6.00 Build 0)  -->
<!DOCTYPE svg PUBLIC "-//W3C//DTD SVG 1.1//EN" "http://www.w3.org/Graphics/SVG/1.1/DTD/svg11.dtd">
<svg version="1.1" id="Layer_1" xmlns="http://www.w3.org/2000/svg" xmlns:xlink="http://www.w3.org/1999/xlink" x="0px" y="0px"
	 width="785.042px" height="331.293px" viewBox="0 0 785.042 331.293" enable-background="new 0 0 785.042 331.293"
	 xml:space="preserve">
<rect x="207.977" y="25.484" fill="#F5F5F5" width="64.119" height="25.484"/>
<rect x="272.095" y="25.484" fill="#E6E6E6" width="64.119" height="25.484"/>
<rect x="336.214" y="25.484" fill="#F5F5F5" width="64.117" height="25.484"/>
<rect x="400.331" y="25.484" fill="#E6E6E6" width="64.12" height="25.484"/>
<rect x="464.451" y="25.484" fill="#F5F5F5" width="64.118" height="25.484"/>
<rect x="528.569" y="25.484" fill="#E6E6E6" width="64.118" height="25.484"/>
<rect x="592.687" y="25.484" fill="#F5F5F5" width="64.118" height="25.484"/>
<rect x="656.805" y="25.484" fill="#E6E6E6" width="64.119" height="25.484"/>
<rect x="720.924" y="25.484" fill="#F5F5F5" width="64.117" height="25.484"/>
<rect x="143.858" y="25.484" fill="#FDB913" width="641.184" height="25.484"/>
<rect x="143.858" fill="#4D4D4F" width="641.184" height="25.484"/>
<rect x="207.977" y="50.969" fill="#F5F5F5" width="64.119" height="25.484"/>
<rect x="272.095" y="50.969" fill="#E6E6E6" width="64.119" height="25.484"/>
<rect x="336.214" y="50.969" fill="#F5F5F5" width="64.117" height="25.484"/>
<rect x="400.331" y="50.969" fill="#E6E6E6" width="64.12" height="25.484"/>
<rect x="464.451" y="50.969" fill="#F5F5F5" width="64.118" height="25.484"/>
<rect x="528.569" y="50.969" fill="#E6E6E6" width="64.118" height="25.484"/>
<rect x="592.687" y="50.969" fill="#F5F5F5" width="64.118" height="25.484"/>
<rect x="656.805" y="50.969" fill="#E6E6E6" width="64.119" height="25.484"/>
<rect x="720.924" y="50.969" fill="#F5F5F5" width="64.117" height="25.484"/>
<rect x="207.977" y="76.453" fill="#F5F5F5" width="64.119" height="25.483"/>
<rect x="272.095" y="76.453" fill="#E6E6E6" width="64.119" height="25.483"/>
<rect x="336.214" y="76.453" fill="#F5F5F5" width="64.117" height="25.483"/>
<rect x="400.331" y="76.453" fill="#E6E6E6" width="64.12" height="25.483"/>
<rect x="464.451" y="76.453" fill="#F5F5F5" width="64.118" height="25.483"/>
<rect x="528.569" y="76.453" fill="#E6E6E6" width="64.118" height="25.483"/>
<rect x="592.687" y="76.453" fill="#F5F5F5" width="64.118" height="25.483"/>
<rect x="656.805" y="76.453" fill="#E6E6E6" width="64.119" height="25.483"/>
<rect x="720.924" y="76.453" fill="#F5F5F5" width="64.117" height="25.483"/>
<rect x="207.977" y="101.937" fill="#F5F5F5" width="64.119" height="25.484"/>
<rect x="272.095" y="101.937" fill="#E6E6E6" width="64.119" height="25.484"/>
<rect x="336.214" y="101.937" fill="#F5F5F5" width="64.117" height="25.484"/>
<rect x="400.331" y="101.937" fill="#E6E6E6" width="64.12" height="25.484"/>
<rect x="464.451" y="101.937" fill="#F5F5F5" width="64.118" height="25.484"/>
<rect x="528.569" y="101.937" fill="#E6E6E6" width="64.118" height="25.484"/>
<rect x="592.687" y="101.937" fill="#F5F5F5" width="64.118" height="25.484"/>
<rect x="656.805" y="101.937" fill="#E6E6E6" width="64.119" height="25.484"/>
<rect x="720.924" y="101.937" fill="#F5F5F5" width="64.117" height="25.484"/>
<rect x="207.977" y="127.42" fill="#F5F5F5" width="64.119" height="25.484"/>
<rect x="272.095" y="127.42" fill="#E6E6E6" width="64.119" height="25.484"/>
<rect x="336.214" y="127.42" fill="#F5F5F5" width="64.117" height="25.484"/>
<rect x="400.331" y="127.42" fill="#E6E6E6" width="64.12" height="25.484"/>
<rect x="464.451" y="127.42" fill="#F5F5F5" width="64.118" height="25.484"/>
<rect x="528.569" y="127.42" fill="#E6E6E6" width="64.118" height="25.484"/>
<rect x="592.687" y="127.42" fill="#F5F5F5" width="64.118" height="25.484"/>
<rect x="656.805" y="127.42" fill="#E6E6E6" width="64.119" height="25.484"/>
<rect x="720.924" y="127.42" fill="#F5F5F5" width="64.117" height="25.484"/>
<rect x="207.977" y="152.904" fill="#F5F5F5" width="64.119" height="25.484"/>
<rect x="272.095" y="152.904" fill="#E6E6E6" width="64.119" height="25.484"/>
<rect x="336.214" y="152.904" fill="#F5F5F5" width="64.117" height="25.484"/>
<rect x="400.331" y="152.904" fill="#E6E6E6" width="64.12" height="25.484"/>
<rect x="464.451" y="152.904" fill="#F5F5F5" width="64.118" height="25.484"/>
<rect x="528.569" y="152.904" fill="#E6E6E6" width="64.118" height="25.484"/>
<rect x="592.687" y="152.904" fill="#F5F5F5" width="64.118" height="25.484"/>
<rect x="656.805" y="152.904" fill="#E6E6E6" width="64.119" height="25.484"/>
<rect x="720.924" y="152.904" fill="#F5F5F5" width="64.117" height="25.484"/>
<rect x="207.977" y="178.389" fill="#F5F5F5" width="64.119" height="25.484"/>
<rect x="272.095" y="178.389" fill="#E6E6E6" width="64.119" height="25.484"/>
<rect x="336.214" y="178.389" fill="#F5F5F5" width="64.117" height="25.484"/>
<rect x="400.331" y="178.389" fill="#E6E6E6" width="64.12" height="25.484"/>
<rect x="464.451" y="178.389" fill="#F5F5F5" width="64.118" height="25.484"/>
<rect x="528.569" y="178.389" fill="#E6E6E6" width="64.118" height="25.484"/>
<rect x="592.687" y="178.389" fill="#F5F5F5" width="64.118" height="25.484"/>
<rect x="656.805" y="178.389" fill="#E6E6E6" width="64.119" height="25.484"/>
<rect x="720.924" y="178.389" fill="#F5F5F5" width="64.117" height="25.484"/>
<rect x="207.977" y="203.873" fill="#F5F5F5" width="64.119" height="25.484"/>
<rect x="272.095" y="203.873" fill="#E6E6E6" width="64.119" height="25.484"/>
<rect x="336.214" y="203.873" fill="#F5F5F5" width="64.117" height="25.484"/>
<rect x="400.331" y="203.873" fill="#E6E6E6" width="64.12" height="25.484"/>
<rect x="464.451" y="203.873" fill="#F5F5F5" width="64.118" height="25.484"/>
<rect x="528.569" y="203.873" fill="#E6E6E6" width="64.118" height="25.484"/>
<rect x="592.687" y="203.873" fill="#F5F5F5" width="64.118" height="25.484"/>
<rect x="656.805" y="203.873" fill="#E6E6E6" width="64.119" height="25.484"/>
<rect x="720.924" y="203.873" fill="#F5F5F5" width="64.117" height="25.484"/>
<rect x="207.977" y="229.357" fill="#F5F5F5" width="64.119" height="25.482"/>
<rect x="272.095" y="229.357" fill="#E6E6E6" width="64.119" height="25.482"/>
<rect x="336.214" y="229.357" fill="#F5F5F5" width="64.117" height="25.482"/>
<rect x="400.331" y="229.357" fill="#E6E6E6" width="64.12" height="25.482"/>
<rect x="464.451" y="229.357" fill="#F5F5F5" width="64.118" height="25.482"/>
<rect x="528.569" y="229.357" fill="#E6E6E6" width="64.118" height="25.482"/>
<rect x="592.687" y="229.357" fill="#F5F5F5" width="64.118" height="25.482"/>
<rect x="656.805" y="229.357" fill="#E6E6E6" width="64.119" height="25.482"/>
<rect x="720.924" y="229.357" fill="#F5F5F5" width="64.117" height="25.482"/>
<rect x="207.977" y="254.84" fill="#F5F5F5" width="64.119" height="25.485"/>
<rect x="272.095" y="254.84" fill="#E6E6E6" width="64.119" height="25.485"/>
<rect x="336.214" y="254.84" fill="#F5F5F5" width="64.117" height="25.485"/>
<rect x="400.331" y="254.84" fill="#E6E6E6" width="64.12" height="25.485"/>
<rect x="464.451" y="254.84" fill="#F5F5F5" width="64.118" height="25.485"/>
<rect x="528.569" y="254.84" fill="#E6E6E6" width="64.118" height="25.485"/>
<rect x="592.687" y="254.84" fill="#F5F5F5" width="64.118" height="25.485"/>
<rect x="656.805" y="254.84" fill="#E6E6E6" width="64.119" height="25.485"/>
<rect x="720.924" y="254.84" fill="#F5F5F5" width="64.117" height="25.485"/>
<rect x="207.977" y="280.325" fill="#F5F5F5" width="64.119" height="25.483"/>
<rect x="272.095" y="280.325" fill="#E6E6E6" width="64.119" height="25.483"/>
<rect x="336.214" y="280.325" fill="#F5F5F5" width="64.117" height="25.483"/>
<rect x="400.331" y="280.325" fill="#E6E6E6" width="64.12" height="25.483"/>
<rect x="464.451" y="280.325" fill="#F5F5F5" width="64.118" height="25.483"/>
<rect x="528.569" y="280.325" fill="#E6E6E6" width="64.118" height="25.483"/>
<rect x="592.687" y="280.325" fill="#F5F5F5" width="64.118" height="25.483"/>
<rect x="656.805" y="280.325" fill="#E6E6E6" width="64.119" height="25.483"/>
<rect x="720.924" y="280.325" fill="#F5F5F5" width="64.117" height="25.483"/>
<rect x="207.977" y="305.809" fill="#F5F5F5" width="64.119" height="25.484"/>
<rect x="143.858" y="50.969" fill="#E6E6E6" width="64.119" height="280.324"/>
<rect x="272.095" y="305.809" fill="#E6E6E6" width="64.119" height="25.484"/>
<rect x="336.214" y="305.809" fill="#F5F5F5" width="64.117" height="25.484"/>
<rect x="400.331" y="305.809" fill="#E6E6E6" width="64.12" height="25.484"/>
<rect x="464.451" y="305.809" fill="#F5F5F5" width="64.118" height="25.484"/>
<rect x="528.569" y="305.809" fill="#E6E6E6" width="64.118" height="25.484"/>
<rect x="592.687" y="305.809" fill="#F5F5F5" width="64.118" height="25.484"/>
<rect x="656.805" y="305.809" fill="#E6E6E6" width="64.119" height="25.484"/>
<rect x="720.924" y="305.809" fill="#F5F5F5" width="64.117" height="25.484"/>
<g>
	<g>
		<path fill="none" stroke="#58595B" stroke-width="0.5" stroke-miterlimit="10" d="M63.677,60.327
			c-2.286-0.606-16.561,2.239-20.34,5.832c-0.747,0.887,0.653,2.846,0,5.552c-1.306,1.213-9.75,6.812-14.135,7.931
			c-4.385,1.12-6.298,4.246-7.232,6.531c-0.932,2.286-3.685,7.558-3.545,12.69s0.326,7.791-0.606,11.803
			c-0.933,4.012-2.1,9.751-2.893,14.183c-0.793,4.432-2.799,8.397-3.686,10.776c-0.887,2.38-4.362,15.583-5.412,21.391
			c-1.049,5.808-2.939,14.139-3.289,14.91c-0.35,0.771-1.889,2.171-0.979,6.582c2.099,0.279,7.068,0.84,7.068,0.84
			s0.35-2.799,1.819-5.951c1.47-3.151,5.738-11.762,8.678-16.031c2.939-4.268,4.969-9.867,5.878-12.946
			c0.91-3.079,1.749-6.298,2.03-8.887c0.28-2.589,0.91-4.619,1.469-4.829c0.49,2.589-0.56,10.637-1.259,15.115
			c-0.7,4.479-0.63,5.634-0.63,7.995s-0.49,9.01-2.799,17.27c-2.309,8.264-4.549,17.781-4.479,25.969
			c0.069,8.188,0,15.535,2.309,24.492c2.1,11.197,4.199,12.807,4.479,14.486s0.35,6.507,0.49,8.607
			c0.14,2.099,0.84,6.508,1.33,8.047c0.49,1.539,1.749,5.039,0.979,9.307c-0.77,4.27-0.14,8.118-0.069,16.865
			c0.069,8.748,1.05,19.244-0.14,31.701c1.33,1.748,8.538,2.449,12.386,1.049c0.07-7.978,3.359-23.512,5.178-29.67
			c1.82-6.158,1.959-16.516,1.05-23.094s-0.77-7.697,0.07-10.497c0.84-2.799,0.21-13.925,1.61-21.343
			c1.399-7.418,1.68-11.687,1.749-14.346c1.05,1.119,3.405,12.736,4.502,20.434c1.096,7.697,2.986,12.807,3.966,15.324
			c0.979,2.52,4.898,10.217,6.578,12.527c1.679,2.309,3.289,8.117,3.709,10.986c0.419,2.869,0.77,12.177,1.399,18.754
			c0.63,6.578,0.77,7.769,1.189,12.107c0.42,4.338,0.839,10.426-1.959,18.054c0.91,1.47,8.538,2.869,11.337,1.399
			c2.729-11.336,6.508-29.951,6.228-48.845c-0.21-9.167-4.059-18.964-5.249-23.862c-1.19-4.898-3.009-10.287-1.399-22.604
			c1.609-12.316,0.77-35.27-1.003-48.146c-1.773-12.884-4.852-23.428-3.639-38.636c0.443-6.298,2.892-12.176,4.222-15.465
			c1.33-3.289,2.939-9.097,3.639-9.447c0.63,1.12,4.059,13.296,5.388,17.635c1.33,4.338,1.959,6.158,1.959,10.497
			c0,4.338,0.35,15.396,1.049,19.594c0.7,4.198,1.47,13.513,0,19.602c4.129,0.771,10.917,1.47,10.917,1.47s-0.069-4.898,0.7-10.429
			c0.77-5.534,3.219-21.49,2.87-26.458c-0.351-4.969-2.66-22.323-3.57-30.231c-0.91-7.907-3.849-23.232-6.717-29.741
			c-2.869-6.508-9.447-9.657-10.707-9.867c-1.26-0.21-2.379-0.98-5.179-3.114c-2.799-2.135-11.582-5.878-13.156-6.893
			C66.255,66.287,64.739,64.864,63.677,60.327z"/>
		<path fill="#333132" stroke="#333132" stroke-miterlimit="10" d="M5.684,157.799c-1.07,5.746-2.811,13.388-3.145,14.125
			c-0.35,0.771-1.889,2.171-0.979,6.582c2.099,0.279,7.068,0.84,7.068,0.84s0.35-2.799,1.819-5.951
			c0.484-1.037,1.272-2.669,2.215-4.541C11.061,166.211,8.181,163.47,5.684,157.799z"/>
		<path fill="#333132" stroke="#333132" stroke-miterlimit="10" d="M14.128,166c1.646-3.14,3.494-6.455,4.997-8.636
			c2.939-4.268,4.969-9.867,5.878-12.946c0.91-3.079,1.749-6.298,2.03-8.887c0.266-2.46,0.848-4.412,1.385-4.78
			c0.346-5.639,0.488-15.604-0.802-18.686c-1.679-4.012-2.24-10.917-3.172-11.756c-0.934-0.84-2.893,3.732-3.639,9.237
			c-0.747,5.505-3.172,24.072-3.079,27.525c0.093,3.452-0.187,12.689-1.493,19.688C15.519,160.58,14.687,163.505,14.128,166z"/>
		<path fill="#333132" stroke="#333132" stroke-miterlimit="10" d="M105.795,162.851c-4.125,1.016-9.059,3.225-10.441,5.011
			c-3.079-9.705-0.56-21.648,0.84-25.66c1.399-4.012,1.399-6.625-0.56-12.41s-3.732-28.364-10.264-32.283
			c-6.531-3.918-9.33,3.079-11.943,6.905c-2.612,3.826-3.359,9.144-2.706,12.782c0.653,3.639,0.561,13.81,1.026,22.58
			c0.86-2.656,5.055-8.779,7.985-12.837c0.329-0.841,0.638-1.602,0.902-2.255c1.33-3.289,2.939-9.097,3.639-9.447
			c0.63,1.12,4.059,13.296,5.388,17.635c1.33,4.338,1.959,6.158,1.959,10.497c0,4.338,0.35,15.396,1.049,19.594
			c0.7,4.198,1.47,13.513,0,19.602c4.129,0.771,10.917,1.47,10.917,1.47s-0.069-4.898,0.7-10.429
			C104.608,171.307,105.217,167.209,105.795,162.851z"/>
		<path fill="#333132" stroke="#333132" stroke-miterlimit="10" d="M40.958,248.625c-2.309-1.819-8.957-8.048-11.547-8.607
			c-1.25-0.27-2.189,0.309-2.944,1.348c0.048,1.27,0.091,2.469,0.145,3.271c0.14,2.099,0.84,6.508,1.33,8.047
			c0.401,1.262,1.317,3.84,1.213,7.078c0.849,2.825,2.171,6.201,3.686,7.338c8.188-10.147,9.517-14.136,10.147-15.256
			C43.617,250.725,43.267,250.445,40.958,248.625z"/>
		<path fill="#333132" stroke="#333132" stroke-miterlimit="10" d="M79.726,257.793c-2.1-1.61-13.856-9.168-17.355-9.938
			c-1.201-0.265-2.164,0.205-2.92,1.118c1.254,2.944,4.779,9.81,6.349,11.968c1.679,2.309,3.289,8.117,3.709,10.986
			c0.049,0.334,0.097,0.76,0.145,1.254c0.98,0.657,1.99,1.652,2.794,2.875C77.207,268.498,80.215,261.851,79.726,257.793z"/>
		<path fill="#333132" stroke="#333132" stroke-miterlimit="10" d="M67.657,67.188c-1.513-1.009-2.958-2.49-3.98-6.861
			c-2.286-0.606-16.561,2.239-20.34,5.832c-0.747,0.887,0.653,2.846,0,5.552c-0.213,0.197-0.618,0.513-1.161,0.905
			c-0.518,1.876-0.847,4.238,1.161,5.113c2.729,1.189,6.438,1.96,14.485-2.309C62.995,72.675,65.882,69.759,67.657,67.188z"/>
		<path fill="#333132" stroke="#333132" stroke-miterlimit="10" d="M50.754,212.656c0.28-4.292,0.374-13.902-2.053-17.448
			c-2.426-3.546-11.383-8.416-14.649-3.647C30.788,196.328,33.12,209.484,50.754,212.656z"/>
	</g>
	<g>
		<text transform="matrix(0 1 -1 0 135.3721 195.751)" fill="#B40000" font-family="'GillSans-SemiBold'" font-size="9.8014">altura</text>
	</g>
	
		<line fill="none" stroke="#B40000" stroke-width="2" stroke-linecap="round" stroke-linejoin="round" stroke-miterlimit="10" x1="128.347" y1="59.942" x2="128.347" y2="323.127"/>
	<path fill="none" stroke="#B40000" stroke-width="2" stroke-linecap="round" stroke-linejoin="round" stroke-miterlimit="10" d="
		M130.592,60.148c-1.385,0.263-1.422,0.733-4.489,0.032"/>
	<path fill="none" stroke="#B40000" stroke-width="2" stroke-linecap="round" stroke-linejoin="round" stroke-miterlimit="10" d="
		M126.096,323.005c1.385-0.263,1.422-0.733,4.489-0.032"/>
	<g>
		<path fill="none" stroke="#B40000" stroke-linecap="round" stroke-linejoin="round" stroke-miterlimit="10" d="M83.071,179.238
			c3.531,1.336,5.524,2.947,5.524,4.682c0,4.623-19.041,8.371-37.129,8.371c-18.089,0-38.271-3.748-38.271-8.371
			c0-1.723,2.033-3.322,5.518-4.653"/>
		<polyline fill="none" stroke="#B40000" stroke-linecap="round" stroke-linejoin="round" stroke-miterlimit="10" points="
			15.481,177.904 19.217,178.689 18.479,182.201 		"/>
		<polyline fill="none" stroke="#B40000" stroke-linecap="round" stroke-linejoin="round" stroke-miterlimit="10" points="
			86.328,177.904 82.592,178.689 83.33,182.201 		"/>
		<g>
			
				<text transform="matrix(0.9973 -0.0728 0.0728 0.9973 42.3872 188.4932)" fill="#B40000" font-family="'GillSans-SemiBold'" font-size="9.8014">quadril</text>
		</g>
	</g>
	<g>
		<path fill="none" stroke="#B40000" stroke-linecap="round" stroke-linejoin="round" stroke-miterlimit="10" d="M79.258,153.719
			c3.042,1.151,4.759,2.54,4.759,4.034c0,3.984-16.406,7.213-31.993,7.213s-32.976-3.229-32.976-7.213
			c0-1.484,1.751-2.862,4.755-4.009"/>
		<polyline fill="none" stroke="#B40000" stroke-linecap="round" stroke-linejoin="round" stroke-miterlimit="10" points="
			21.019,152.57 24.238,153.247 23.602,156.272 		"/>
		<polyline fill="none" stroke="#B40000" stroke-linecap="round" stroke-linejoin="round" stroke-miterlimit="10" points="
			82.064,152.57 78.845,153.247 79.481,156.272 		"/>
	</g>
	<g>
		
			<text transform="matrix(0.9973 -0.0728 0.0728 0.9973 38.8911 162.894)" fill="#B40000" font-family="'GillSans-SemiBold'" font-size="9.8014">cintura</text>
	</g>
	<g>
		<path fill="none" stroke="#B40000" stroke-linecap="round" stroke-linejoin="round" stroke-miterlimit="10" d="M82.976,226.785
			c1.658,0.627,2.594,1.385,2.594,2.198c0,2.171-8.939,3.93-17.431,3.93c-8.492,0-17.966-1.759-17.966-3.93
			c0-0.809,0.955-1.56,2.59-2.185"/>
		<polyline fill="none" stroke="#B40000" stroke-linecap="round" stroke-linejoin="round" stroke-miterlimit="10" points="
			51.245,226.159 52.999,226.528 52.652,228.177 		"/>
		<polyline fill="none" stroke="#B40000" stroke-linecap="round" stroke-linejoin="round" stroke-miterlimit="10" points="
			84.504,226.159 82.751,226.528 83.097,228.177 		"/>
		<g>
			<text transform="matrix(0.9993 -0.0377 0.0377 0.9993 51.627 241.0488)"><tspan x="0" y="0" fill="#B40000" font-family="'GillSans-SemiBold'" font-size="8.5493">espessura</tspan><tspan x="9.347" y="7.125" fill="#B40000" font-family="'GillSans-SemiBold'" font-size="8.5493">coxa</tspan></text>
		</g>
	</g>
	<g>
		<path fill="none" stroke="#B40000" stroke-miterlimit="10" d="M83.924,119.313c3.123,1.182,4.885,2.607,4.885,4.14
			c0,4.089-16.84,7.405-32.839,7.405c-15.999,0-33.849-3.315-33.849-7.405c0-1.522,1.798-2.938,4.88-4.115"/>
		<polyline fill="none" stroke="#B40000" stroke-linecap="round" stroke-linejoin="round" stroke-miterlimit="10" points="
			24.144,118.133 27.448,118.828 26.795,121.934 		"/>
		<polyline fill="none" stroke="#B40000" stroke-linecap="round" stroke-linejoin="round" stroke-miterlimit="10" points="
			86.805,118.133 83.5,118.828 84.153,121.934 		"/>
		
			<text transform="matrix(0.9947 0.1032 -0.1032 0.9947 31.4453 126.8218)" fill="#B40000" font-family="'GillSans-SemiBold'" font-size="9.8014">tórax</text>
	</g>
	<path fill="none" stroke="#B40000" stroke-width="2" stroke-linecap="round" stroke-linejoin="round" stroke-miterlimit="10" d="
		M100.066,80.057c3.071,5.059,16.442,42.607,8.492,103.977"/>
	<path fill="none" stroke="#B40000" stroke-width="2" stroke-linecap="round" stroke-linejoin="round" stroke-miterlimit="10" d="
		M102.209,79.226c-1.255,0.641-1.159,1.103-4.299,1.293"/>
	<path fill="none" stroke="#B40000" stroke-width="2" stroke-linecap="round" stroke-linejoin="round" stroke-miterlimit="10" d="
		M106.164,183.804c1.41,0.007,1.536-0.447,4.413,0.827"/>
	<g>
		
			<text transform="matrix(0.0548 0.9985 -0.9985 0.0548 111.6929 88.7524)" fill="#B40000" font-family="'GillSans-SemiBold'" font-size="9.8014">comprimento braço</text>
	</g>
	<g>
		<g>
			<path fill="none" stroke="#B40000" stroke-width="2" stroke-linecap="round" stroke-linejoin="round" stroke-miterlimit="10" d="
				M87.251,190.751c3.072,5.06,12.488,70.347,4.538,131.708"/>
			<path fill="none" stroke="#B40000" stroke-width="2" stroke-linecap="round" stroke-linejoin="round" stroke-miterlimit="10" d="
				M89.394,189.921c-1.255,0.642-1.158,1.103-4.299,1.293"/>
			<path fill="none" stroke="#B40000" stroke-width="2" stroke-linecap="round" stroke-linejoin="round" stroke-miterlimit="10" d="
				M89.394,322.229c1.41,0.008,1.536-0.447,4.413,0.826"/>
		</g>
		<g>
			
				<text transform="matrix(0.0344 0.9994 -0.9994 0.0344 97.3867 212.4316)" fill="#B40000" font-family="'GillSans-SemiBold'" font-size="9.8014">comprimento pernas</text>
		</g>
	</g>
</g>
<text transform="matrix(1 0 0 1 148.7485 36.9399)"><tspan x="0" y="0" fill="#333132" font-family="'GillSans-SemiBold'" font-size="12.7993">Tamanho</tspan><tspan x="13.496" y="11.759" fill="#333132" font-family="'GillSans-SemiBold'" font-size="12.7993">USA</tspan><tspan x="18.149" y="31.759" fill="#333132" font-family="'GillSans-SemiBold'" font-size="12.7993">XS</tspan><tspan x="23.033" y="56.759" fill="#333132" font-family="'GillSans-SemiBold'" font-size="12.7993">S</tspan><tspan x="17.689" y="82.759" fill="#333132" font-family="'GillSans-SemiBold'" font-size="12.7993">MS</tspan><tspan x="21.108" y="108.759" fill="#333132" font-family="'GillSans-SemiBold'" font-size="12.7993">M</tspan><tspan x="16.846" y="133.759" fill="#333132" font-family="'GillSans-SemiBold'" font-size="12.7993">MT</tspan><tspan x="19.493" y="159.759" fill="#333132" font-family="'GillSans-SemiBold'" font-size="12.7993">LS</tspan><tspan x="22.911" y="184.759" fill="#333132" font-family="'GillSans-SemiBold'" font-size="12.7993">L</tspan><tspan x="18.649" y="209.759" fill="#333132" font-family="'GillSans-SemiBold'" font-size="12.7993">LT</tspan><tspan x="18.027" y="235.759" fill="#333132" font-family="'GillSans-SemiBold'" font-size="12.7993">XL</tspan><tspan x="13.143" y="260.759" fill="#333132" font-family="'GillSans-SemiBold'" font-size="12.7993">XXL</tspan><tspan x="8.259" y="285.759" fill="#333132" font-family="'GillSans-SemiBold'" font-size="12.7993">XXXL</tspan></text>
<text transform="matrix(1 0 0 1 286.3301 36.9399)"><tspan x="0" y="0" fill="#333132" font-family="'GillSans-SemiBold'" font-size="12.7993">Altura</tspan><tspan x="-6.693" y="11.759" fill="#333132" font-family="'GillSans-SemiBold'" font-size="12.7993">(Metros)</tspan><tspan x="-11.255" y="31.759" fill="#333132" font-family="'GillSans-SemiBold'" font-size="12.7993">1,67 - 1,72</tspan><tspan x="-11.255" y="56.759" fill="#333132" font-family="'GillSans-SemiBold'" font-size="12.7993">1,71 - 1,76</tspan><tspan x="-11.255" y="81.759" fill="#333132" font-family="'GillSans-SemiBold'" font-size="12.7993">1,71 - 1,76</tspan><tspan x="-11.255" y="108.759" fill="#333132" font-family="'GillSans-SemiBold'" font-size="12.7993">1,75 - 1,80</tspan><tspan x="-11.255" y="133.759" fill="#333132" font-family="'GillSans-SemiBold'" font-size="12.7993">1,80 - 1,86</tspan><tspan x="-11.255" y="159.759" fill="#333132" font-family="'GillSans-SemiBold'" font-size="12.7993">1,75 - 1,80</tspan><tspan x="-11.255" y="184.759" fill="#333132" font-family="'GillSans-SemiBold'" font-size="12.7993">1,80 - 1,86</tspan><tspan x="-11.255" y="209.759" fill="#333132" font-family="'GillSans-SemiBold'" font-size="12.7993">1,83 - 1,88</tspan><tspan x="-11.255" y="235.759" fill="#333132" font-family="'GillSans-SemiBold'" font-size="12.7993">1,83 - 1,88</tspan><tspan x="-11.255" y="260.759" fill="#333132" font-family="'GillSans-SemiBold'" font-size="12.7993">1,83 - 1,88</tspan><tspan x="-11.255" y="286.759" fill="#333132" font-family="'GillSans-SemiBold'" font-size="12.7993">1,83 - 1,88</tspan></text>
<text transform="matrix(1 0 0 1 354.979 36.9399)"><tspan x="0" y="0" fill="#333132" font-family="'GillSans-SemiBold'" font-size="12.7993">Peso</tspan><tspan x="-9.606" y="11.759" fill="#333132" font-family="'GillSans-SemiBold'" font-size="12.7993">(Quilos)</tspan><tspan x="-5.881" y="31.759" fill="#333132" font-family="'GillSans-SemiBold'" font-size="12.7993">56 - 63</tspan><tspan x="-5.881" y="56.759" fill="#333132" font-family="'GillSans-SemiBold'" font-size="12.7993">61 - 70</tspan><tspan x="-5.881" y="81.759" fill="#333132" font-family="'GillSans-SemiBold'" font-size="12.7993">63 - 72</tspan><tspan x="-5.881" y="108.759" fill="#333132" font-family="'GillSans-SemiBold'" font-size="12.7993">68 - 77</tspan><tspan x="-5.881" y="133.759" fill="#333132" font-family="'GillSans-SemiBold'" font-size="12.7993">70 - 79</tspan><tspan x="-5.881" y="159.759" fill="#333132" font-family="'GillSans-SemiBold'" font-size="12.7993">74 - 83</tspan><tspan x="-5.881" y="184.759" fill="#333132" font-family="'GillSans-SemiBold'" font-size="12.7993">77 - 86</tspan><tspan x="-5.881" y="209.759" fill="#333132" font-family="'GillSans-SemiBold'" font-size="12.7993">81 - 90</tspan><tspan x="-5.881" y="235.759" fill="#333132" font-family="'GillSans-SemiBold'" font-size="12.7993">86 - 95</tspan><tspan x="-9.259" y="260.759" fill="#333132" font-family="'GillSans-SemiBold'" font-size="12.7993">95 - 104</tspan><tspan x="-9.259" y="286.759" fill="#333132" font-family="'GillSans-SemiBold'" font-size="12.7993">99 - 105</tspan></text>
<text transform="matrix(1 0 0 1 415.3091 36.9399)"><tspan x="0" y="0" fill="#333132" font-family="'GillSans-SemiBold'" font-size="12.7993">Tórax</tspan><tspan x="4.135" y="11.759" fill="#333132" font-family="'GillSans-SemiBold'" font-size="12.7993">(cm)</tspan><tspan x="-2.094" y="31.759" fill="#333132" font-family="'GillSans-SemiBold'" font-size="12.7993">86 - 91</tspan><tspan x="-2.094" y="56.759" fill="#333132" font-family="'GillSans-SemiBold'" font-size="12.7993">91 - 97</tspan><tspan x="-5.471" y="81.759" fill="#333132" font-family="'GillSans-SemiBold'" font-size="12.7993">97 - 102</tspan><tspan x="-5.471" y="106.759" fill="#333132" font-family="'GillSans-SemiBold'" font-size="12.7993">97 - 102</tspan><tspan x="-5.471" y="131.759" fill="#333132" font-family="'GillSans-SemiBold'" font-size="12.7993">97 - 102</tspan><tspan x="-8.85" y="157.759" fill="#333132" font-family="'GillSans-SemiBold'" font-size="12.7993">102 - 107</tspan><tspan x="-8.85" y="183.759" fill="#333132" font-family="'GillSans-SemiBold'" font-size="12.7993">102 - 107</tspan><tspan x="-8.85" y="209.759" fill="#333132" font-family="'GillSans-SemiBold'" font-size="12.7993">102 - 107</tspan><tspan x="-8.85" y="235.759" fill="#333132" font-family="'GillSans-SemiBold'" font-size="12.7993">107 - 112</tspan><tspan x="-8.85" y="261.759" fill="#333132" font-family="'GillSans-SemiBold'" font-size="12.7993">112 - 117</tspan><tspan x="-8.85" y="287.759" fill="#333132" font-family="'GillSans-SemiBold'" font-size="12.7993">117 - 122</tspan></text>
<text transform="matrix(1 0 0 1 475.2358 36.9399)"><tspan x="0" y="0" fill="#333132" font-family="'GillSans-SemiBold'" font-size="12.7993">Cintura</tspan><tspan x="8.327" y="11.759" fill="#333132" font-family="'GillSans-SemiBold'" font-size="12.7993">(cm)</tspan><tspan x="2.101" y="31.759" fill="#333132" font-family="'GillSans-SemiBold'" font-size="12.7993">69 - 74</tspan><tspan x="2.101" y="56.759" fill="#333132" font-family="'GillSans-SemiBold'" font-size="12.7993">74 - 79</tspan><tspan x="2.101" y="81.759" fill="#333132" font-family="'GillSans-SemiBold'" font-size="12.7993">79 - 84</tspan><tspan x="2.101" y="106.759" fill="#333132" font-family="'GillSans-SemiBold'" font-size="12.7993">79 - 84</tspan><tspan x="2.101" y="131.759" fill="#333132" font-family="'GillSans-SemiBold'" font-size="12.7993">79 - 84</tspan><tspan x="2.101" y="157.759" fill="#333132" font-family="'GillSans-SemiBold'" font-size="12.7993">84 - 89</tspan><tspan x="2.101" y="183.759" fill="#333132" font-family="'GillSans-SemiBold'" font-size="12.7993">84 - 89</tspan><tspan x="2.101" y="209.759" fill="#333132" font-family="'GillSans-SemiBold'" font-size="12.7993">84 - 89</tspan><tspan x="2.101" y="235.759" fill="#333132" font-family="'GillSans-SemiBold'" font-size="12.7993">89 - 94</tspan><tspan x="2.101" y="261.759" fill="#333132" font-family="'GillSans-SemiBold'" font-size="12.7993">94 - 99</tspan><tspan x="-1.278" y="287.759" fill="#333132" font-family="'GillSans-SemiBold'" font-size="12.7993">99 - 104</tspan></text>
<text transform="matrix(1 0 0 1 539.2905 36.9399)"><tspan x="0" y="0" fill="#333132" font-family="'GillSans-SemiBold'" font-size="12.7993">Quadril</tspan><tspan x="8.39" y="11.759" fill="#333132" font-family="'GillSans-SemiBold'" font-size="12.7993">(cm)</tspan><tspan x="2.163" y="31.759" fill="#333132" font-family="'GillSans-SemiBold'" font-size="12.7993">84 - 89</tspan><tspan x="2.163" y="56.759" fill="#333132" font-family="'GillSans-SemiBold'" font-size="12.7993">86 - 91</tspan><tspan x="2.163" y="81.759" fill="#333132" font-family="'GillSans-SemiBold'" font-size="12.7993">89 - 94</tspan><tspan x="2.163" y="106.759" fill="#333132" font-family="'GillSans-SemiBold'" font-size="12.7993">89 - 94</tspan><tspan x="2.163" y="131.759" fill="#333132" font-family="'GillSans-SemiBold'" font-size="12.7993">89 - 94</tspan><tspan x="2.163" y="157.759" fill="#333132" font-family="'GillSans-SemiBold'" font-size="12.7993">94 - 99</tspan><tspan x="2.163" y="183.759" fill="#333132" font-family="'GillSans-SemiBold'" font-size="12.7993">94 - 99</tspan><tspan x="2.163" y="209.759" fill="#333132" font-family="'GillSans-SemiBold'" font-size="12.7993">94 - 99</tspan><tspan x="-1.216" y="235.759" fill="#333132" font-family="'GillSans-SemiBold'" font-size="12.7993">99 - 104</tspan><tspan x="-4.593" y="261.759" fill="#333132" font-family="'GillSans-SemiBold'" font-size="12.7993">104 - 109</tspan><tspan x="-4.593" y="287.759" fill="#333132" font-family="'GillSans-SemiBold'" font-size="12.7993">112 - 117</tspan></text>
<text transform="matrix(1 0 0 1 608.3423 36.9399)"><tspan x="0" y="0" fill="#333132" font-family="'GillSans-SemiBold'" font-size="12.7993">Braço</tspan><tspan x="3.457" y="11.759" fill="#333132" font-family="'GillSans-SemiBold'" font-size="12.7993">(cm)</tspan><tspan x="-2.771" y="31.759" fill="#333132" font-family="'GillSans-SemiBold'" font-size="12.7993">49 - 53</tspan><tspan x="-2.771" y="56.759" fill="#333132" font-family="'GillSans-SemiBold'" font-size="12.7993">50 - 54</tspan><tspan x="-2.771" y="81.759" fill="#333132" font-family="'GillSans-SemiBold'" font-size="12.7993">50 - 54</tspan><tspan x="-2.771" y="106.759" fill="#333132" font-family="'GillSans-SemiBold'" font-size="12.7993">52 - 56</tspan><tspan x="-2.771" y="131.759" fill="#333132" font-family="'GillSans-SemiBold'" font-size="12.7993">53 - 57</tspan><tspan x="-2.771" y="157.759" fill="#333132" font-family="'GillSans-SemiBold'" font-size="12.7993">52 - 56</tspan><tspan x="-2.771" y="183.759" fill="#333132" font-family="'GillSans-SemiBold'" font-size="12.7993">53 - 57</tspan><tspan x="-2.771" y="209.759" fill="#333132" font-family="'GillSans-SemiBold'" font-size="12.7993">54 - 58</tspan><tspan x="-2.771" y="235.759" fill="#333132" font-family="'GillSans-SemiBold'" font-size="12.7993">54 - 58</tspan><tspan x="-2.771" y="261.759" fill="#333132" font-family="'GillSans-SemiBold'" font-size="12.7993">54 - 58</tspan><tspan x="-2.771" y="287.759" fill="#333132" font-family="'GillSans-SemiBold'" font-size="12.7993">54 - 58</tspan></text>
<text transform="matrix(1 0 0 1 734.1304 36.9399)"><tspan x="0" y="0" fill="#333132" font-family="'GillSans-SemiBold'" font-size="12.7993">Pernas</tspan><tspan x="5.905" y="11.759" fill="#333132" font-family="'GillSans-SemiBold'" font-size="12.7993">(cm)</tspan><tspan x="-0.321" y="31.759" fill="#333132" font-family="'GillSans-SemiBold'" font-size="12.7993">62 - 66</tspan><tspan x="-0.321" y="56.759" fill="#333132" font-family="'GillSans-SemiBold'" font-size="12.7993">64 - 68</tspan><tspan x="-0.321" y="81.759" fill="#333132" font-family="'GillSans-SemiBold'" font-size="12.7993">64 - 68</tspan><tspan x="-0.321" y="106.759" fill="#333132" font-family="'GillSans-SemiBold'" font-size="12.7993">67 - 71</tspan><tspan x="-0.321" y="131.759" fill="#333132" font-family="'GillSans-SemiBold'" font-size="12.7993">70 - 74</tspan><tspan x="-0.321" y="157.759" fill="#333132" font-family="'GillSans-SemiBold'" font-size="12.7993">67 - 71</tspan><tspan x="-0.321" y="183.759" fill="#333132" font-family="'GillSans-SemiBold'" font-size="12.7993">70 - 74</tspan><tspan x="-0.321" y="209.759" fill="#333132" font-family="'GillSans-SemiBold'" font-size="12.7993">72 - 76</tspan><tspan x="-0.321" y="235.759" fill="#333132" font-family="'GillSans-SemiBold'" font-size="12.7993">72 - 76</tspan><tspan x="-0.321" y="261.759" fill="#333132" font-family="'GillSans-SemiBold'" font-size="12.7993">72 - 76</tspan><tspan x="-0.321" y="287.759" fill="#333132" font-family="'GillSans-SemiBold'" font-size="12.7993">72 - 76</tspan></text>
<text transform="matrix(1 0 0 1 657.9263 35.1821)"><tspan x="0" y="0" fill="#333132" font-family="'GillSans-SemiBold'" font-size="9">Espessura Coxa</tspan><tspan x="17.992" y="14" fill="#333132" font-family="'GillSans-SemiBold'" font-size="12.7993">(cm)</tspan><tspan x="11.764" y="34" fill="#333132" font-family="'GillSans-SemiBold'" font-size="12.7993">49 - 53</tspan><tspan x="11.764" y="59" fill="#333132" font-family="'GillSans-SemiBold'" font-size="12.7993">50 - 54</tspan><tspan x="11.764" y="84" fill="#333132" font-family="'GillSans-SemiBold'" font-size="12.7993">50 - 54</tspan><tspan x="11.764" y="109" fill="#333132" font-family="'GillSans-SemiBold'" font-size="12.7993">52 - 56</tspan><tspan x="11.764" y="134" fill="#333132" font-family="'GillSans-SemiBold'" font-size="12.7993">53 - 57</tspan><tspan x="11.764" y="160" fill="#333132" font-family="'GillSans-SemiBold'" font-size="12.7993">52 - 56</tspan><tspan x="11.764" y="186" fill="#333132" font-family="'GillSans-SemiBold'" font-size="12.7993">53 - 57</tspan><tspan x="11.764" y="212" fill="#333132" font-family="'GillSans-SemiBold'" font-size="12.7993">54 - 58</tspan><tspan x="11.764" y="238" fill="#333132" font-family="'GillSans-SemiBold'" font-size="12.7993">54 - 58</tspan><tspan x="11.764" y="264" fill="#333132" font-family="'GillSans-SemiBold'" font-size="12.7993">54 - 58</tspan><tspan x="11.764" y="290" fill="#333132" font-family="'GillSans-SemiBold'" font-size="12.7993">54 - 58</tspan></text>
<text transform="matrix(1 0 0 1 213.584 36.9399)"><tspan x="0" y="0" fill="#333132" font-family="'GillSans-SemiBold'" font-size="12.7993">Tamanho</tspan><tspan x="18.312" y="11.759" fill="#333132" font-family="'GillSans-SemiBold'" font-size="12.7993">BR</tspan><tspan x="18.977" y="31.759" fill="#333132" font-family="'GillSans-SemiBold'" font-size="12.7993">PP</tspan><tspan x="22.714" y="56.759" fill="#333132" font-family="'GillSans-SemiBold'" font-size="12.7993">P</tspan><tspan x="-1.1" y="80.759" fill="#333132" font-family="'GillSans-SemiBold'" font-size="10">Medio-Baixo</tspan><tspan x="21.108" y="108.759" fill="#333132" font-family="'GillSans-SemiBold'" font-size="12.7993">M</tspan><tspan x="1.618" y="133.759" fill="#333132" font-family="'GillSans-SemiBold'" font-size="10">Medio-Alto</tspan><tspan x="-3.839" y="159.759" fill="#333132" font-family="'GillSans-SemiBold'" font-size="10">Grande-Baixo</tspan><tspan x="22.911" y="184.759" fill="#333132" font-family="'GillSans-SemiBold'" font-size="12.7993">L</tspan><tspan x="-3.879" y="209.759" fill="#333132" font-family="'GillSans-SemiBold'" font-size="11">Grande-Alto</tspan><tspan x="18.027" y="235.759" fill="#333132" font-family="'GillSans-SemiBold'" font-size="12.7993">XL</tspan><tspan x="-0.247" y="260.759" fill="#333132" font-family="'GillSans-SemiBold'" font-size="12.7993">Extra GG</tspan><tspan x="19.689" y="285.759" fill="#333132" font-family="'GillSans-SemiBold'" font-size="12.7993">3x</tspan></text>
<text transform="matrix(1 0 0 1 417.2563 19.5557)" fill="#FDB913" font-family="'GillSans-SemiBold'" font-size="21.783">Masculino</text>
</svg>
