<?xml version="1.0" encoding="utf-8"?>
<!-- Generator: Adobe Illustrator 20.0.0, SVG Export Plug-In . SVG Version: 6.00 Build 0)  -->
<svg version="1.1" id="Ebene_1" xmlns="http://www.w3.org/2000/svg" xmlns:xlink="http://www.w3.org/1999/xlink" x="0px" y="0px"
	 viewBox="0 0 250 480" style="enable-background:new 0 0 250 480;" xml:space="preserve">
<style type="text/css">
	
		.st0{fill-rule:evenodd;clip-rule:evenodd;fill:none;stroke:#7E8890;stroke-width:2;stroke-linecap:round;stroke-linejoin:round;stroke-miterlimit:22.9256;}
	.st1{fill-rule:evenodd;clip-rule:evenodd;fill:#E1E6EA;}
	.st2{fill:#7E8890;}
</style>
<g id="Barriga_Pequena_1_">
	<path class="st0" d="M75.8,144.8c0,0-4.3,80.5-6.7,106.5c-3.4,37.1,2.7,49.6,3.3,56.3"/>
	<g>
		<path class="st1" d="M73.5,342.5c-0.1-0.5-0.1-1.1-0.2-1.7c-0.5-3.6-1.3-10.4-1.3-26.3l0-9.4c3.6-1.3,21.3-7.6,38.9-9.5
			c-0.8,4.1-4.2,18.3-6.5,27.9c-14.6,0.9-24.3,11.7-29,17C74.8,341.2,74.1,342,73.5,342.5z"/>
		<path class="st2" d="M109.7,296.7c-1.1,5.1-3.9,17.2-6,25.8c-14.6,1.3-24.2,12-29,17.2c-0.1,0.2-0.3,0.3-0.5,0.5
			c-0.5-3.7-1.2-10.5-1.2-25.8l0-8.7C77.6,304.1,93.5,298.6,109.7,296.7 M112.1,294.5C112.1,294.5,112.1,294.5,112.1,294.5
			c-20.4,1.8-41.1,9.9-41.1,9.9s0,1.4,0,10.1c0,20.5,1.4,25.9,1.6,28.9c0,0.5,0.2,0.7,0.4,0.7c2.1,0,12.8-18.9,32.3-19.7
			C105.3,324.4,112.6,294.5,112.1,294.5L112.1,294.5z"/>
	</g>
	<path class="st0" d="M73.9,343.2c0,0-1.9,31.6,1.9,68.6"/>
</g>
</svg>
