<?xml version="1.0" encoding="utf-8"?>
<!-- Generator: Adobe Illustrator 20.0.0, SVG Export Plug-In . SVG Version: 6.00 Build 0)  -->
<svg version="1.1" id="Ebene_1" xmlns="http://www.w3.org/2000/svg" xmlns:xlink="http://www.w3.org/1999/xlink" x="0px" y="0px"
	 viewBox="0 0 250 480" style="enable-background:new 0 0 250 480;" xml:space="preserve">
<style type="text/css">
	.st0{fill-rule:evenodd;clip-rule:evenodd;fill:#E1E6EA;}
	.st1{fill:#7E8890;}
	
		.st2{fill-rule:evenodd;clip-rule:evenodd;fill:none;stroke:#7E8890;stroke-width:2;stroke-linecap:round;stroke-linejoin:round;stroke-miterlimit:22.9256;}
</style>
<g id="Barriga_Grande_1_">
	<g>
		<path class="st0" d="M73.5,342.5c-1.2-5.5-10-30.5-12.2-36.6c5.4-1.6,31.8-9.2,49.8-11c-0.2,0.8-0.5,1.9-0.8,2.9l-6,25.2
			c-14.7,1-24.3,12-29,17.4C74.7,341.1,74,342,73.5,342.5z"/>
		<path class="st1" d="M109.8,296c-0.1,0.5-0.3,1-0.4,1.4c0,0,0,0.1,0,0.1l-5.8,24.5c-14.6,1.3-24.3,12.3-29,17.7
			c-0.2,0.2-0.4,0.5-0.6,0.7c-2.1-7.5-8.8-26.5-11.4-33.9C69.5,304.5,92.9,298,109.8,296 M112.1,293.8
			C112.1,293.8,112.1,293.8,112.1,293.8C91.7,295.6,60,305.2,60,305.2s12.4,35.1,12.6,38.1c0,0.5,0.1,0.7,0.4,0.7
			c2.1,0,12.7-19.3,32.2-20.1l6.1-25.9C111.3,298,112.6,293.8,112.1,293.8L112.1,293.8z"/>
	</g>
	<path class="st2" d="M73.9,343.4c0,0-1.9,31.4,1.9,68.5"/>
	<path class="st2" d="M75.9,145.4c0,0-24.1,81.2-23.2,107.3c1.5,47.4,7.2,49.4,9.2,55.1"/>
</g>
</svg>
