<?xml version="1.0" encoding="utf-8"?>
<!-- Generator: Adobe Illustrator 20.0.0, SVG Export Plug-In . SVG Version: 6.00 Build 0)  -->
<svg version="1.1" id="Ebene_1" xmlns="http://www.w3.org/2000/svg" xmlns:xlink="http://www.w3.org/1999/xlink" x="0px" y="0px"
	 viewBox="0 0 250 480" style="enable-background:new 0 0 250 480;" xml:space="preserve">
<style type="text/css">
	.st0{fill-rule:evenodd;clip-rule:evenodd;fill:#E1E6EA;}
	.st1{fill:#7E8890;}
	
		.st2{fill-rule:evenodd;clip-rule:evenodd;fill:none;stroke:#7E8890;stroke-width:2;stroke-linecap:round;stroke-linejoin:round;stroke-miterlimit:22.9256;}
</style>
<g id="Barriga_Média">
	<g>
		<path class="st0" d="M73.5,342.5c-0.9-5.7-6.5-32.5-7.6-37.9c4.7-1.4,27.2-7.8,45-9.5c-0.2,0.8-0.5,1.9-0.8,2.9l-6,25.3
			c-14.7,1-24.2,11.9-28.8,17.3C74.7,341.2,74,341.9,73.5,342.5z"/>
		<path class="st1" d="M109.5,296.2c-0.1,0.5-0.3,1-0.4,1.4c0,0,0,0.1,0,0.1l-5.8,24.5c-14.7,1.3-24.1,12.2-28.8,17.6
			c-0.1,0.1-0.3,0.3-0.4,0.4c-1.4-8-5.7-28.3-7.1-35C73,303.6,93,298,109.5,296.2 M111.8,294C111.8,294,111.8,294,111.8,294
			c-20.4,1.8-47.2,9.9-47.2,9.9s7.7,36.4,7.9,39.5c0,0.5,0.1,0.7,0.4,0.7c2,0,12.5-19.1,31.9-19.9l6.1-25.9
			C111,298.2,112.3,294,111.8,294L111.8,294z"/>
	</g>
	<path class="st2" d="M73.9,342.5c0,0-1.9,32.3,1.9,69.4"/>
	<path class="st2" d="M75.9,145.4c0,0-12,78.2-14.3,104.2c-3.4,37.1,3.3,51,4.5,57"/>
</g>
</svg>
