<?xml version="1.0" encoding="utf-8"?>
<!-- Generator: Adobe Illustrator 20.0.0, SVG Export Plug-In . SVG Version: 6.00 Build 0)  -->
<svg version="1.1" id="Ebene_1" xmlns="http://www.w3.org/2000/svg" xmlns:xlink="http://www.w3.org/1999/xlink" x="0px" y="0px"
	 viewBox="0 0 250 480" style="enable-background:new 0 0 250 480;" xml:space="preserve">
<style type="text/css">
	
		.st0{fill-rule:evenodd;clip-rule:evenodd;fill:none;stroke:#7E8890;stroke-width:2;stroke-linecap:round;stroke-linejoin:round;stroke-miterlimit:22.9256;}
	
		.st1{fill-rule:evenodd;clip-rule:evenodd;fill:#E1E6EA;stroke:#7E8890;stroke-width:2;stroke-linecap:round;stroke-linejoin:round;stroke-miterlimit:22.9256;}
	.st2{fill:none;stroke:#7E8890;stroke-width:2;stroke-linecap:round;stroke-miterlimit:22.9256;}
</style>
<g id="Quadril_Médio_1_">
	<path class="st0" d="M174.7,0c0,0,12.3,36.9,15.4,61.5c3.1,24.6-2.2,68.1-4.6,84.6c-2.1,14.5-12.3,51.2-11.8,71.7
		c0.4,17.6,0.7,43.9,14.3,74.4c1.1,2.4,5.1,8,8.5,15.2c14.1,29.8,12.2,40.6,12,49.4c-0.4,14.7-5.9,30-26.7,46.5c0,0-1.9,1.1-5,20.1
		c-3.1,19-4.1,56.7-4.1,56.7"/>
	<polygon class="st1" points="166.4,134.1 185.9,142 182.1,160 166.9,157.4 	"/>
	<path class="st1" d="M189.4,295.2c0,0-15.7-3.8-38.6-2.3c-1.3,0.1-3.1,5.1-3.1,5.1l-14.1,29.7c0,0,49.8,5.8,67.9,54
		c0,0,7.2-8.1,7.2-31.8C208.6,319.5,188.7,295.2,189.4,295.2z"/>
	<g>
		<path class="st2" d="M123.4,233.3c-4.6,21.6-6.8,41.8-11.4,61.7c-6.2,26.4-12.6,51.7-18.8,80c-0.2,1-2,5.3-2.7,6.4
			c-10.4,17.6-13.9,27.8-19.1,42c-0.3,0.8-0.3,3.9-0.1,4.8c3.1,9.3,7,17.4,10.5,25.5c6.7,7.2,13.4,12.8,20.1,19.9
			c3.7-5.4-1.6-15.4-6.5-19.8c-0.5-7.2-0.4-14.8-2.4-22.5c5.7-8.7,11.6-14.3,15.3-19.8c4-9.7,2.6-22.4,4.3-33.9
			c1.3-4.9,2.7-3.8,3.8-7.1c1.1-3.2,0.9-5.2,1.3-6.4c8.8-25.4,22.4-47.5,31.2-71.6c6.8-18.7,9-37.3,13-50.5
			c0.8-2.6,2.1-5.7,2.2-13.5c0.1-13.5,1.7-39.8,1.9-65.8c0.2-18.5-0.2-36.7,0.9-50.8c0.1-1.6,3-22.3,3.5-41.5
			c0.1-3.9,1.5-26.1-9.3-35.5c-12.2-10.6-41.5-9.8-45,17.9C112.2,85.6,121.6,197.7,123.4,233.3z"/>
		<polyline class="st2" points="85.3,432.6 88.1,453.6 96.6,468.1 		"/>
		<line class="st2" x1="77.6" y1="430" x2="81.2" y2="452"/>
	</g>
</g>
</svg>
