<?xml version="1.0" encoding="utf-8"?>
<!-- Generator: Adobe Illustrator 20.0.0, SVG Export Plug-In . SVG Version: 6.00 Build 0)  -->
<svg version="1.1" id="Ebene_1" xmlns="http://www.w3.org/2000/svg" xmlns:xlink="http://www.w3.org/1999/xlink" x="0px" y="0px"
	 viewBox="0 0 250 480" style="enable-background:new 0 0 250 480;" xml:space="preserve">
<style type="text/css">
	.st0{fill:none;stroke:#7E8890;stroke-width:2;stroke-linecap:round;stroke-linejoin:round;stroke-miterlimit:22.9256001;}
	
		.st1{fill-rule:evenodd;clip-rule:evenodd;fill:none;stroke:#7E8890;stroke-width:2;stroke-linecap:round;stroke-miterlimit:22.9256001;}
	.st2{fill:none;stroke:#7E8890;stroke-width:2;stroke-linecap:round;stroke-miterlimit:22.9256001;}
	
		.st3{fill-rule:evenodd;clip-rule:evenodd;fill:#E1E6EA;stroke:#7E8890;stroke-width:2;stroke-linecap:round;stroke-linejoin:round;stroke-miterlimit:10;}
</style>
<g id="Quadril_Pequeno">
	<g>
		<polyline class="st0" points="73.4753036,407.3545837 76.2564392,424.8377686 84.7146606,438.6990967 		"/>
		<polyline class="st0" points="62.9278297,404.2456055 68.3826218,423.6563721 76.0473633,433.1429749 		"/>
	</g>
	<path class="st1" d="M169.8090668,0c0,0,3.6523285,15.9739408,8.2166901,25.1026573
		c2.8502502,5.702692,7.528717,16.4742279,9.8228607,27.260994c1.7549286,8.2597351,2.2766571,26.3789787,2.1128387,31.6526985
		c-0.4053497,13.1303177-1.2462921,30.9088974-4.176239,55.6558914c-4.1093292,34.6884003,3.05513,116.8504944,13.0978699,152.90802
		l5.1960144,14.9628601"/>
	<path class="st2" d="M136.0799561,49.8388367c36.3766785-5.7651711,47.8920135,42.8167725,45.3091431,78.0440903
		c-1.2657471,17.2654953-2.3221436,60.8777237-3.0487213,69.4567184
		c-0.6446838,7.6453094-2.3996429,13.7230988-2.0718079,20.3830872c1.0197906,20.7281799-2.878479,23.4490356-3.8852234,27.0625153
		c-15.057724,54.2199402-51.9086304,83.4083252-69.5688782,110.1237793
		c-0.6466522,0.9789429,0.6618958,5.4786072,0.3256531,6.6039124c-0.5022736,1.6774597-3.5445938,1.198822-4.6074448,5.5560913
		c0.0302734,6.5953064,2.6389847,15.7929077-2.6281128,24.1045227c-3.8636093,6.6577759-6.3753967,7.0286865-11.2632294,14.8875122
		c0.6016464,7.4598389-0.5971756,12.0564575,0,18.4812927c4.4091797,3.7689209,9.536087,14.3485718,6.3796234,19.2297668
		c-6.0905991-6.24823-18.1234283-11.3881836-24.2164612-17.6364136
		c-3.5207443-7.7594604-9.6978874-24.4429626-12.6861153-33.5909119
		c5.0257874-14.6739807,10.0880013-26.206543,24.2358894-47.2451172
		c15.6873703-34.772522,20.098732-69.2950134,45.6864471-111.8961945
		c-4.6204376-28.9252167-12.2699509-104.7959747-8.8052826-124.5540466c0,0,0-21.592514,4.6743088-37.7263031
		C122.0420151,63.7712402,126.0415955,51.4277763,136.0799561,49.8388367z"/>
	<path class="st1" d="M185.8948212,400.2936096c0,0,8.4347229,56.3370667,1.4793396,79.5123291"/>
	<path class="st1" d="M75.2799377,432.2029114c0,0,6.312706,34.8586121,11.7202148,47.7970886"/>
	<path class="st3" d="M98.8150787,366.8255005c0.0432739,1.4703979,0.5325165,7.140625,0.7351913,9.5338745
		c38.7504959-0.7113647,74.5038986,10.6637878,86.0947342,24.6781006
		c25.3744659-26.7779236,23.6108856-68.3378296,17.7613831-94.4580383
		c-19.428009,2.1969604-50.8455811,4.9933167-67.7576141,6.9035034
		c-6.1749268,8.9907227-22.9079056,27.4334106-32.5494995,41.1825562c-1.192421,1.2418823,1.6278,6.138092-0.2934113,7.4446411
		C100.1713181,363.6646423,99.3692322,364.5097656,98.8150787,366.8255005L98.8150787,366.8255005z"/>
</g>
</svg>
