<?xml version="1.0" encoding="utf-8"?>
<!-- Generator: Adobe Illustrator 20.0.0, SVG Export Plug-In . SVG Version: 6.00 Build 0)  -->
<svg version="1.1" id="Ebene_1" xmlns="http://www.w3.org/2000/svg" xmlns:xlink="http://www.w3.org/1999/xlink" x="0px" y="0px"
	 viewBox="0 0 250 480" style="enable-background:new 0 0 250 480;" xml:space="preserve">
<style type="text/css">
	
		.st0{fill-rule:evenodd;clip-rule:evenodd;fill:none;stroke:#7E8890;stroke-width:2;stroke-linecap:round;stroke-miterlimit:22.9256;}
	
		.st1{fill-rule:evenodd;clip-rule:evenodd;fill:#E1E6EA;stroke:#7E8890;stroke-width:2;stroke-linecap:round;stroke-linejoin:round;stroke-miterlimit:22.9256;}
	.st2{fill:none;stroke:#7E8890;stroke-width:2;stroke-linecap:round;stroke-miterlimit:22.9256;}
</style>
<g id="Quadril_Pequeno_4_">
	<path class="st0" d="M177.7,0c0,0,14.3,36.9,17.4,61.5c3.1,24.6-2.2,68.1-4.6,84.6c-2.1,14.5-9.6,52.3-9.1,72.8
		c0.4,17.6,2.1,42.9,15.7,73.4c1.1,2.4,5.5,8,8.9,15.2c14.1,29.8,13.1,44.7,12,53.5c-0.7,5.2-3.7,31.2-20.9,40.4
		c0,0-3.6,11.3-6.7,30.2c-3.1,19-4.1,48.5-4.1,48.5"/>
	<polygon class="st1" points="170.5,136 190.5,143.4 186.8,161.4 170.2,158.1 	"/>
	<path class="st1" d="M198.7,295.2c0,0-26.1-3.8-49.1-2.3c-1.3,0.1-3.1,5.1-3.1,5.1l-14.1,29.7c0,0,54.2,19.3,72.3,67.4
		c0,0,14.4-20.1,14.4-43.8C219,320.9,198,295.2,198.7,295.2z"/>
	<g>
		<path class="st2" d="M114.4,233.3c-4.6,21.6-6.7,41.8-11.4,61.7c-6.2,26.4-10.9,51.7-17.1,80c-0.2,1-2,5.3-2.7,6.4
			c-10.4,17.6-7.7,27.8-12.9,42c-0.3,0.8-0.3,3.9-0.1,4.8c3.1,9.3,7,17.4,10.5,25.5c6.7,7.2,13.4,12.8,20.1,19.9
			c3.7-5.4-1.6-15.4-6.5-19.8c-0.5-7.2-0.4-14.8-2.4-22.5c5.7-8.7,11.6-14.3,15.3-19.8c4-9.7,2.6-22.4,4.3-33.9
			c1.3-4.9,2.7-3.8,3.8-7.1c1.1-3.2,0.9-5.2,1.3-6.4c8.8-25.4,22.4-47.5,31.2-71.6c6.8-18.7,9-37.3,13-50.5
			c0.8-2.6,2.1-5.7,2.2-13.5c0.1-13.5,6.9-39.3,7.2-65.3c0.2-18.5,1.6-36.9,1.6-51c0-23.8,0.2-22.2-0.7-41.3
			c-0.2-3.9-0.2-26.7-11-36C148,24.3,110.3,25,106.9,52.7C102.8,85.6,112.6,197.7,114.4,233.3z"/>
		<polyline class="st2" points="84.1,432.6 87,453.6 95.5,468.1 		"/>
		<line class="st2" x1="76.5" y1="430" x2="80.1" y2="452"/>
	</g>
</g>
</svg>
